#!OML:ASF H:\GeneralSubjects\Female5\Project 1\Capture day 1\Session 1\Female5.ASF
:FULLY-SPECIFIED
:DEGREES
513
root 29.3901 15.8771 9.11706 25.1247 111.295 11.7347
lowerback 10.1179 0.224137 -2.16696
upperback -6.82206 1.05186 6.5796
thorax -13.4641 1.24975 8.36467
lowerneck -7.84408 -2.0499 -2.13712
upperneck 46.909 6.98694 -8.92347
head 20.2651 2.84762 -2.31575
rclavicle -1.76918e-014 1.11319e-014
rhumerus -32.8204 32.893 -72.9612
rradius 48.247
rwrist -11.7227
rhand -26.4151 -21.1431
rfingers 7.12502
rthumb 0.144856 -51.1227
lclavicle -1.76918e-014 1.11319e-014
lhumerus -51.2362 15.5324 69.1126
lradius 32.9699
lwrist -20.2568
lhand -29.6101 27.7134
lfingers 7.12502
lthumb -2.94093 57.6729
rfemur -4.59096 21.1901 36.8081
rtibia -5.20258
rfoot -17.4969 -26.8805
rtoes -13.9701
lfemur -37.5662 -6.43543 -20.3112
ltibia 31.5406
lfoot -29.4809 -2.55327
ltoes -33.4575
514
root 29.546 15.8501 9.10159 25.8208 111.636 12.4887
lowerback 9.96827 0.19726 -2.14209
upperback -6.80092 1.0417 6.7143
thorax -13.3499 1.25095 8.50202
lowerneck -7.74793 -1.95252 -2.09365
upperneck 47.0215 7.31035 -9.06629
head 20.3713 2.98926 -2.33946
rclavicle 9.74045e-015 -6.36111e-015
rhumerus -32.8085 33.7726 -73.2807
rradius 48.6844
rwrist -11.7251
rhand -26.4487 -20.9715
rfingers 7.12502
rthumb 0.112329 -50.9513
lclavicle 9.74045e-015 -6.36111e-015
lhumerus -51.7523 15.8739 68.7598
lradius 32.9809
lwrist -20.351
lhand -29.7334 27.5887
lfingers 7.12502
lthumb -3.05999 57.5465
rfemur -3.71464 21.4209 37.6874
rtibia -5.50948
rfoot -17.6925 -27.3815
rtoes -14.4288
lfemur -37.867 -6.93401 -20.2373
ltibia 26.7372
lfoot -30.081 -1.73877
ltoes -34.1091
515
root 29.7051 15.8176 9.08253 26.5935 111.978 13.3
lowerback 9.78239 0.162812 -2.08095
upperback -6.79594 1.02933 6.8541
thorax -13.2309 1.24898 8.62388
lowerneck -7.63815 -1.84329 -2.02434
upperneck 47.1196 7.65854 -9.23721
head 20.4713 3.14329 -2.37759
rclavicle 6.85807e-015 -2.8625e-014
rhumerus -32.9209 34.6831 -73.6766
rradius 49.1514
rwrist -11.6853
rhand -26.4307 -20.8101
rfingers 7.12502
rthumb 0.129773 -50.7898
lclavicle 6.85807e-015 -2.8625e-014
lhumerus -52.2798 16.2342 68.4258
lradius 33.0177
lwrist -20.458
lhand -29.8182 27.4505
lfingers 7.12502
lthumb -3.14192 57.4071
rfemur -2.83154 21.559 38.5927
rtibia -5.84257
rfoot -17.8753 -27.7519
rtoes -14.8913
lfemur -38.0049 -7.83654 -19.8856
ltibia 21.8483
lfoot -31.3579 -0.064471
ltoes -35.3989
516
root 29.8667 15.7805 9.05908 27.4329 112.319 14.17
lowerback 9.58629 0.124451 -1.97633
upperback -6.8044 1.02036 6.997
thorax -13.1211 1.24611 8.7232
lowerneck -7.51654 -1.72202 -1.94086
upperneck 47.1914 8.02112 -9.42154
head 20.5541 3.30422 -2.42195
rclavicle 4.65156e-014 -5.725e-014
rhumerus -33.132 35.5874 -74.1292
rradius 49.6207
rwrist -11.5775
rhand -26.3662 -20.6619
rfingers 7.12502
rthumb 0.192079 -50.6416
lclavicle 4.65156e-014 -5.725e-014
lhumerus -52.8345 16.5884 68.1348
lradius 33.1035
lwrist -20.5692
lhand -29.8769 27.2894
lfingers 7.12502
lthumb -3.19855 57.2452
rfemur -1.95203 21.5608 39.515
rtibia -6.18028
rfoot -18.0904 -27.9363
rtoes -15.2156
lfemur -38.0209 -9.408 -19.0535
ltibia 17.0028
lfoot -33.5187 2.24973
ltoes -36.988
517
root 30.0296 15.7396 9.03087 28.3617 112.651 15.1375
lowerback 9.40368 0.0888665 -1.82038
upperback -6.8202 1.02555 7.14712
thorax -13.0299 1.24736 8.79841
lowerneck -7.37394 -1.58699 -1.84415
upperneck 47.2205 8.39135 -9.61686
head 20.6029 3.46916 -2.47176
rclavicle -6.4605e-015 1.59028e-015
rhumerus -33.4085 36.428 -74.6162
rradius 50.0611
rwrist -11.3884
rhand -26.26 -20.513
rfingers 7.12502
rthumb 0.294654 -50.4926
lclavicle -6.4605e-015 1.59028e-015
lhumerus -53.4275 16.9148 67.9167
lradius 33.2657
lwrist -20.6667
lhand -29.8993 27.1228
lfingers 7.12502
lthumb -3.22016 57.0782
rfemur -1.10085 21.3428 40.4535
rtibia -6.48448
rfoot -18.3092 -27.8588
rtoes -15.4154
lfemur -37.9917 -12.0506 -17.3836
ltibia 12.2988
lfoot -36.9773 4.85782
ltoes -38.301
518
root 30.1933 15.6959 8.9981 29.3691 112.964 16.2036
lowerback 9.25857 0.0649319 -1.62238
upperback -6.83778 1.05541 7.30456
thorax -12.9678 1.25883 8.8537
lowerneck -7.21879 -1.44236 -1.76324
upperneck 47.2173 8.75462 -9.78803
head 20.6213 3.63027 -2.50635
rclavicle 3.16068e-014 -2.8625e-014
rhumerus -33.7278 37.164 -75.1226
rradius 50.4508
rwrist -11.1525
rhand -26.1346 -20.3596
rfingers 7.12502
rthumb 0.415696 -50.3389
lclavicle 3.16068e-014 -2.8625e-014
lhumerus -54.035 17.1999 67.7901
lradius 33.4813
lwrist -20.7378
lhand -29.8975 26.912
lfingers 7.12502
lthumb -3.21849 56.8674
rfemur -0.301151 20.6437 41.3906
rtibia -6.74235
rfoot -18.3551 -27.3244
rtoes -15.7003
lfemur -38.108 -16.2739 -14.408
ltibia 7.87789
lfoot -42.3749 7.52998
ltoes -39.0652
519
root 30.3579 15.6504 8.96166 30.4608 113.262 17.3805
lowerback 9.16375 0.0587866 -1.39539
upperback -6.8516 1.11773 7.47704
thorax -12.9386 1.28616 8.90451
lowerneck -7.07828 -1.29708 -1.72752
upperneck 47.2101 9.0991 -9.90406
head 20.6323 3.77991 -2.50721
rclavicle -3.47873e-014 7.95139e-015
rhumerus -34.0675 37.786 -75.6232
rradius 50.7751
rwrist -10.9306
rhand -26.007 -20.2208
rfingers 7.12502
rthumb 0.538941 -50.1998
lclavicle -3.47873e-014 7.95139e-015
lhumerus -54.581 17.4704 67.7388
lradius 33.6532
lwrist -20.8201
lhand -29.9213 26.671
lfingers 7.12502
lthumb -3.24144 56.6261
rfemur 0.396629 19.9729 42.3067
rtibia -6.83494
rfoot -18.2809 -26.8969
rtoes -16.5798
lfemur -38.858 -22.6266 -9.45616
ltibia 4.00653
lfoot -50.6857 9.41827
ltoes -38.5211
520
root 30.524 15.6034 8.92236 31.6345 113.546 18.672
lowerback 9.11918 0.0722661 -1.15754
upperback -6.85544 1.21294 7.66965
thorax -12.9358 1.33119 8.96717
lowerneck -6.96175 -1.15531 -1.74767
upperneck 47.2147 9.41884 -9.95039
head 20.6465 3.91488 -2.46635
rclavicle 1.35174e-014 0
rhumerus -34.4141 38.2919 -76.1021
rradius 51.0179
rwrist -10.7674
rhand -25.8835 -20.0935
rfingers 7.12502
rthumb 0.658256 -50.0722
lclavicle 1.35174e-014 0
lhumerus -55.0161 17.7198 67.7674
lradius 33.7433
lwrist -20.8792
lhand -29.9796 26.3949
lfingers 7.12502
lthumb -3.29771 56.3492
rfemur 1.02688 18.7664 43.2013
rtibia -6.83142
rfoot -18.082 -25.9452
rtoes -17.7907
lfemur -38.1213 -24.0835 -8.3962
ltibia 0.663224
lfoot -53.1606 8.64878
ltoes -37.1704
